<?xml version="1.0" encoding="UTF-8"?>
<svg width="24" height="24" viewBox="0 0 24 24" fill="none" xmlns="http://www.w3.org/2000/svg">
  <path d="M12 3C7.02944 3 3 7.02944 3 12C3 16.9706 7.02944 21 12 21C16.9706 21 21 16.9706 21 12C21 7.02944 16.9706 3 12 3Z" stroke="#194FE8" stroke-width="2" stroke-linecap="round" stroke-linejoin="round"/>
  <path d="M12 8C10.3431 8 9 9.34315 9 11C9 11.7403 9.4022 12.3866 10 12.7324M15 11C15 12.6569 13.6569 14 12 14C11.2597 14 10.6134 13.5978 10.2676 13" stroke="#194FE8" stroke-width="2" stroke-linecap="round" stroke-linejoin="round"/>
  <path d="M9 16C9.64501 16.8348 10.7399 17.3333 12 17.3333C13.2601 17.3333 14.355 16.8348 15 16" stroke="#194FE8" stroke-width="2" stroke-linecap="round" stroke-linejoin="round"/>
</svg>
